#!OML:ASF I:\salsa\salsa 7_09\Patient 1\Session 1\dancermale.ASF
:FULLY-SPECIFIED
:DEGREES
1426
root 1.6205 17.4281 -0.606049 -4.45827 83.4728 707.697
lowerback -5.33454 -1.93099 4.14172
upperback -2.11043 -2.74136 -0.142063
thorax 0.610873 -1.37632 -2.61976
lowerneck -4.53352 4.1068 4.50952
upperneck 9.19282 5.60486 -4.0508
head 4.11784 2.77889 -1.87425
rclavicle -7.60973e-015 -1.32192e-014
rhumerus -44.8334 18.7182 -106.446
rradius 79.633
rwrist 5.53133
rhand -40.7358 3.17025
rfingers 7.12502
rthumb -13.677 -26.3603
lclavicle -7.60973e-015 -1.32192e-014
lhumerus 6.97398 9.3774 82.3081
lradius 48.639
lwrist 49.114
lhand -21.7501 54.6122
lfingers 7.12502
lthumb 4.65007 -995.459
rfemur -14.3345 -0.748574 26.731
rtibia 21.1425
rfoot -14.6768 -11.0942
rtoes 9.18792
lfemur -31.0527 5.45749 -16.2514
ltibia 52.694
lfoot -13.1968 7.53345
ltoes -0.147335
1427
root 1.55711 17.4429 -0.608628 -3.92625 83.1406 708.171
lowerback -5.74273 -1.88418 4.04541
upperback -2.00097 -2.69728 0.0156182
thorax 0.966774 -1.34371 -2.42084
lowerneck -4.625 4.12012 4.43941
upperneck 9.24431 5.63293 -4.11164
head 4.15557 2.78662 -1.87925
rclavicle 4.80034e-015 -2.23633e-015
rhumerus -44.3627 18.703 -106.186
rradius 79.7184
rwrist 5.57261
rhand -40.8408 3.27379
rfingers 7.12502
rthumb -13.7782 -26.25
lclavicle 4.80034e-015 -2.23633e-015
lhumerus 7.10821 9.32814 81.6016
lradius 48.4374
lwrist 48.6325
lhand -23.8146 55.1029
lfingers 7.12502
lthumb 2.6564 -994.934
rfemur -14.2072 -1.31049 26.6766
rtibia 20.301
rfoot -14.1085 -10.1155
rtoes 9.02071
lfemur -30.2961 5.83686 -16.4278
ltibia 55.1485
lfoot -13.1812 7.55226
ltoes 0.75636
1428
root 1.4896 17.4519 -0.609369 -2.93037 82.7945 709.091
lowerback -6.05399 -1.82301 3.82446
upperback -2.00623 -2.61763 0.16256
thorax 1.15762 -1.29818 -2.15376
lowerneck -4.63701 4.10823 4.40264
upperneck 9.40565 5.63211 -4.15596
head 4.21619 2.7838 -1.8875
rclavicle 1.51006e-014 -2.26118e-015
rhumerus -44.1134 18.3553 -105.965
rradius 79.8123
rwrist 5.794
rhand -40.8131 3.40241
rfingers 7.12502
rthumb -13.7515 -26.1232
lclavicle 1.51006e-014 -2.26118e-015
lhumerus 7.0704 9.37573 80.9717
lradius 48.2704
lwrist 48.1273
lhand -24.1834 55.4245
lfingers 7.12502
lthumb 2.30021 -994.608
rfemur -14.1563 -1.59282 26.5773
rtibia 19.506
rfoot -13.63 -9.35801
rtoes 8.58542
lfemur -29.4042 6.22101 -16.7033
ltibia 57.21
lfoot -13.0213 7.38565
ltoes 2.19363
1429
root 1.41843 17.4562 -0.613121 -1.46642 82.5734 710.552
lowerback -5.94568 -1.77082 3.64449
upperback -2.2749 -2.52233 0.194547
thorax 0.836174 -1.25776 -2.00402
lowerneck -4.20246 4.0672 4.43664
upperneck 9.4946 5.59287 -4.09288
head 4.15833 2.77594 -1.88101
rclavicle 1.79986e-014 9.98893e-015
rhumerus -44.3093 17.702 -105.964
rradius 79.8617
rwrist 5.92073
rhand -40.737 3.42926
rfingers 7.12502
rthumb -13.6782 -26.1013
lclavicle 1.79986e-014 9.98893e-015
lhumerus 6.52526 9.2474 80.2397
lradius 48.2744
lwrist 47.7181
lhand -23.6946 55.6887
lfingers 7.12502
lthumb 2.77234 -994.35
rfemur -14.0835 -1.89406 26.3736
rtibia 18.7597
rfoot -13.0839 -8.69216
rtoes 8.00553
lfemur -28.3226 6.42077 -17.1194
ltibia 58.8636
lfoot -12.9415 7.02954
ltoes 2.15054
1430
root 1.35236 17.4606 -0.621196 -1.17277 82.4049 710.897
lowerback -5.91865 -1.72837 3.6194
upperback -2.44544 -2.45635 0.278911
thorax 0.65425 -1.22818 -1.89455
lowerneck -3.96321 4.05932 4.42618
upperneck 9.6439 5.5968 -4.0383
head 4.16173 2.78473 -1.86383
rclavicle 4.65746e-015 6.36111e-015
rhumerus -44.4006 17.1097 -105.913
rradius 79.8243
rwrist 5.90917
rhand -40.5789 3.36506
rfingers 7.12502
rthumb -13.5258 -26.1757
lclavicle 4.65746e-015 6.36111e-015
lhumerus 6.06209 9.03938 79.5788
lradius 48.3838
lwrist 47.6083
lhand -23.7027 56.2275
lfingers 7.12502
lthumb 2.76452 -993.811
rfemur -13.9224 -2.29762 26.3095
rtibia 18.0566
rfoot -12.507 -8.08158
rtoes 8.35003
lfemur -26.9789 6.50537 -17.3605
ltibia 59.829
lfoot -12.8442 6.30808
ltoes 0.740133
1431
root 1.28771 17.4647 -0.634099 -1.78532 82.2759 710.258
lowerback -6.13975 -1.71049 3.68949
upperback -2.50207 -2.44317 0.445862
thorax 0.723762 -1.21903 -1.76812
lowerneck -3.97045 4.03834 4.48288
upperneck 9.81084 5.58801 -4.1846
head 4.23154 2.77755 -1.92453
rclavicle 3.69646e-014 -1.22253e-014
rhumerus -44.3549 16.6375 -105.777
rradius 79.7414
rwrist 5.87442
rhand -40.4299 3.40189
rfingers 7.12502
rthumb -13.3822 -26.1483
lclavicle 3.69646e-014 -1.22253e-014
lhumerus 5.76394 8.88915 79.0034
lradius 48.5098
lwrist 47.7005
lhand -23.7524 56.6314
lfingers 7.12502
lthumb 2.71652 -993.406
rfemur -13.7815 -2.58616 26.3843
rtibia 17.2946
rfoot -12.0258 -7.7093
rtoes 8.92606
lfemur -25.592 6.54766 -17.465
ltibia 60.1664
lfoot -12.8373 5.0763
ltoes -0.403225
1432
root 1.21917 17.4664 -0.650964 -1.85875 82.1611 710.138
lowerback -6.33477 -1.67211 3.74283
upperback -2.60535 -2.39824 0.549433
thorax 0.730242 -1.19569 -1.69335
lowerneck -4.02866 3.99744 4.40129
upperneck 10.0832 5.5471 -4.14792
head 4.33407 2.75686 -1.8984
rclavicle 3.05006e-014 1.27222e-014
rhumerus -44.3948 16.0013 -105.692
rradius 79.6184
rwrist 5.9702
rhand -40.3414 3.42495
rfingers 7.12502
rthumb -13.2969 -26.1309
lclavicle 3.05006e-014 1.27222e-014
lhumerus 5.35363 8.69389 78.3959
lradius 48.6122
lwrist 47.4982
lhand -22.8729 56.4504
lfingers 7.12502
lthumb 3.56589 -993.6
rfemur -13.653 -2.67235 26.37
rtibia 16.46
rfoot -11.6484 -7.43175
rtoes 9.39729
lfemur -24.1774 6.63915 -17.6844
ltibia 59.9682
lfoot -12.9273 3.69032
ltoes -1.70239
1433
root 1.15212 17.4705 -0.670066 -2.46331 82.0238 709.643
lowerback -6.68628 -1.61354 3.79816
upperback -2.45016 -2.34682 0.69025
thorax 1.09203 -1.16108 -1.59165
lowerneck -4.12391 3.96372 4.40756
upperneck 10.0745 5.51043 -4.27919
head 4.3541 2.73184 -1.94541
rclavicle -3.46231e-014 7.35503e-015
rhumerus -44.0797 15.4095 -105.488
rradius 79.4163
rwrist 6.14622
rhand -40.2027 3.26217
rfingers 7.12502
rthumb -13.1632 -26.3023
lclavicle -3.46231e-014 7.35503e-015
lhumerus 5.22699 8.55142 77.9623
lradius 48.7132
lwrist 47.176
lhand -21.2581 56.0442
lfingers 7.12502
lthumb 5.12516 -994.038
rfemur -13.3415 -2.49628 26.3924
rtibia 15.6455
rfoot -11.2899 -7.283
rtoes 10.6575
lfemur -22.4335 6.78656 -17.808
ltibia 59.0532
lfoot -12.667 2.47697
ltoes -1.85526
1434
root 1.08918 17.4738 -0.691894 -3.402 82.0069 708.771
lowerback -7.1715 -1.58596 3.87655
upperback -2.28886 -2.34602 0.866727
thorax 1.5321 -1.14956 -1.4737
lowerneck -4.30252 3.9075 4.24056
upperneck 10.5453 5.47268 -4.40996
head 4.09121 2.6823 -1.76414
rclavicle -1.98192e-014 1.72943e-014
rhumerus -43.8346 14.8538 -105.282
rradius 79.2119
rwrist 6.24057
rhand -40.1375 3.22319
rfingers 7.12502
rthumb -13.1003 -26.3454
lclavicle -1.98192e-014 1.72943e-014
lhumerus 5.0026 8.09325 77.6466
lradius 49.1207
lwrist 47.9961
lhand -20.4217 55.3442
lfingers 7.12502
lthumb 5.93273 -994.759
rfemur -13.0521 -2.1215 26.4431
rtibia 14.8521
rfoot -11.0663 -7.42728
rtoes 12.5065
lfemur -20.6068 6.76928 -17.873
ltibia 57.3375
lfoot -11.7459 1.54739
ltoes 0.997134
1435
root 1.02359 17.4758 -0.722822 -4.41604 82.2142 707.746
lowerback -6.95965 -1.54906 4.29657
upperback -2.7887 -2.28576 0.831646
thorax 0.881982 -1.13544 -1.72223
lowerneck -3.96371 3.73803 4.24767
upperneck 11.0959 5.27291 -4.25487
head 4.18899 2.60043 -1.73144
rclavicle -3.38555e-015 -4.96962e-015
rhumerus -44.7069 13.7198 -105.472
rradius 79.1336
rwrist 6.29972
rhand -40.1132 3.42885
rfingers 7.12502
rthumb -13.0769 -26.1412
lclavicle -3.38555e-015 -4.96962e-015
lhumerus 3.76691 7.20691 77.0751
lradius 49.6954
lwrist 47.6495
lhand -21.5839 56.5156
lfingers 7.12502
lthumb 4.81057 -993.559
rfemur -12.8618 -1.87617 26.4477
rtibia 14.041
rfoot -10.9444 -7.68774
rtoes 13.7972
lfemur -18.784 6.42305 -17.975
ltibia 54.7898
lfoot -10.9193 1.1882
ltoes 3.40155
1436
root 0.957398 17.4785 -0.763652 -6.83691 82.6514 705.349
lowerback -7.31496 -1.6127 4.78154
upperback -2.79036 -2.41931 0.921756
thorax 1.05096 -1.19851 -1.92174
lowerneck -4.13248 3.65662 4.24908
upperneck 11.4116 5.17495 -4.27638
head 4.30947 2.54962 -1.73813
rclavicle 2.36989e-014 -8.54774e-015
rhumerus -44.8503 13.0727 -105.383
rradius 78.9449
rwrist 6.2617
rhand -40.0463 3.60582
rfingers 7.12502
rthumb -13.0124 -25.9683
lclavicle 2.36989e-014 -8.54774e-015
lhumerus 3.21331 6.53392 76.76
lradius 50.2576
lwrist 46.4124
lhand -21.607 57.3201
lfingers 7.12502
lthumb 4.78829 -992.754
rfemur -12.6342 -2.1616 26.551
rtibia 13.2001
rfoot -10.4596 -7.66422
rtoes 13.2922
lfemur -16.7653 5.74679 -17.9528
ltibia 51.4985
lfoot -11.5616 1.38886
ltoes 4.69225
1437
root 0.882379 17.4738 -0.799815 -9.97686 82.9268 702.118
lowerback -7.66379 -1.61112 5.20597
upperback -2.8657 -2.46101 1.08053
thorax 1.15063 -1.21603 -2.00852
lowerneck -4.32108 3.53628 4.18952
upperneck 11.8111 5.01891 -4.17956
head 4.4521 2.4739 -1.70139
rclavicle 1.71887e-014 -1.66979e-014
rhumerus -45.1566 12.4446 -105.257
rradius 78.7897
rwrist 6.28328
rhand -39.9913 3.62149
rfingers 7.12502
rthumb -12.9594 -25.9561
lclavicle 1.71887e-014 -1.66979e-014
lhumerus 2.52748 5.57062 76.5618
lradius 50.8434
lwrist 44.8799
lhand -21.7219 58.1747
lfingers 7.12502
lthumb 4.67727 -991.897
rfemur -12.6388 -2.35396 26.8055
rtibia 12.4742
rfoot -9.65217 -7.60193
rtoes 11.8715
lfemur -14.7116 5.09465 -17.7252
ltibia 47.0939
lfoot -13.1386 1.4899
ltoes 5.20216
1438
root 0.794929 17.4621 -0.830466 -12.5555 83.0326 699.384
lowerback -7.8999 -1.55442 5.43863
upperback -3.00602 -2.40693 1.25201
thorax 1.1364 -1.18819 -1.96218
lowerneck -3.98198 3.39549 4.45274
upperneck 11.4237 4.85721 -4.63777
head 4.28679 2.38703 -1.9022
rclavicle -4.86029e-014 9.54166e-015
rhumerus -45.544 11.8929 -105.13
rradius 78.6061
rwrist 6.3357
rhand -39.9807 3.55151
rfingers 7.12502
rthumb -12.9492 -26.0267
lclavicle -4.86029e-014 9.54166e-015
lhumerus 1.75154 4.58117 76.4871
lradius 51.4996
lwrist 43.1904
lhand -21.8774 59.0804
lfingers 7.12502
lthumb 4.52718 -990.988
rfemur -12.7644 -2.18769 27.0513
rtibia 11.759
rfoot -8.86866 -7.70015
rtoes 10.4192
lfemur -12.6583 4.63094 -17.4685
ltibia 42.4661
lfoot -14.8999 2.15214
ltoes 0.861378
1439
root 0.697029 17.4516 -0.866761 -14.2356 83.2652 697.52
lowerback -8.0063 -1.53732 5.5702
upperback -3.24041 -2.38285 1.34143
thorax 0.951368 -1.18108 -1.9398
lowerneck -3.93617 3.29957 4.6471
upperneck 11.8078 4.73791 -4.65103
head 4.39521 2.33877 -1.94331
rclavicle -3.81294e-014 6.75868e-015
rhumerus -45.9871 11.361 -105.08
rradius 78.2887
rwrist 6.35243
rhand -39.8507 3.40845
rfingers 7.12502
rthumb -12.8239 -26.1776
lclavicle -3.81294e-014 6.75868e-015
lhumerus 0.821393 3.71352 76.5087
lradius 52.2571
lwrist 41.7759
lhand -21.9045 59.5037
lfingers 7.12502
lthumb 4.50098 -990.564
rfemur -12.9646 -2.07191 27.0853
rtibia 11.0217
rfoot -8.16425 -7.81564
rtoes 9.79869
lfemur -10.8116 4.24691 -17.4708
ltibia 38.81
lfoot -16.7491 3.97089
ltoes -6.07361
1440
root 0.592035 17.4422 -0.907124 -15.1526 83.6175 696.505
lowerback -8.7092 -1.63637 5.31996
upperback -2.86204 -2.56933 1.55683
thorax 1.74135 -1.24687 -1.62714
lowerneck -4.66471 3.23799 4.22184
upperneck 11.8463 4.62878 -4.42984
head 4.50967 2.26435 -1.79988
rclavicle 5.54112e-015 7.55382e-015
rhumerus -45.4462 11.406 -104.743
rradius 77.6667
rwrist 6.37094
rhand -39.5277 3.37851
rfingers 7.12502
rthumb -12.5124 -26.2269
lclavicle 5.54112e-015 7.55382e-015
lhumerus 0.717156 3.52545 76.8604
lradius 53.0295
lwrist 41.0695
lhand -22.0339 59.3725
lfingers 7.12502
lthumb 4.37607 -990.693
rfemur -13.1517 -1.89929 26.8985
rtibia 10.3642
rfoot -7.59681 -8.17762
rtoes 11.2707
lfemur -9.03848 3.62298 -17.6917
ltibia 34.9316
lfoot -17.9575 5.63076
ltoes -10.6842
